<?xml version="1.0" encoding="utf-8"?>
<!-- Generator: Adobe Illustrator 21.0.2, SVG Export Plug-In . SVG Version: 6.00 Build 0)  -->
<svg version="1.1" id="Layer_1" xmlns="http://www.w3.org/2000/svg" xmlns:xlink="http://www.w3.org/1999/xlink" x="0px" y="0px"
	 viewBox="0 0 170.8 71.7" style="enable-background:new 0 0 170.8 71.7;" xml:space="preserve">
<g>
	<g>
		<path d="M7.6,6.3c0,0.1,0,4.6,0,5.2c0,0.6,0,5.6,0,5.7c0,0.1,0.1,0.1,0.1,0.1c0.1-0.1,4.1-6.6,4.2-6.9c0.2-0.3,2.5-4.1,2.5-4.2
			c0-0.1,0.1-0.1,0.4-0.1s5.2,0,5.3,0c0.2,0,0.4,0,0.4,0.1c0.1,0.1,0,0.3,0,0.4c-0.1,0.1-0.9,1.5-1.2,1.9c-0.3,0.4-5,8.4-5.2,8.7
			c-0.2,0.3-0.1,0.3-0.1,0.4c0,0.1,3.2,8.6,3.3,9c0.1,0.3,3.6,10,3.6,10.3c0.1,0.4-0.1,0.4-0.2,0.4c-0.1,0-4.4,1.8-4.5,1.8
			c-0.1,0-0.3,0.1-0.4,0c-0.1-0.2-1.8-5.3-2.3-6.5c-0.4-1.2-3.2-9.3-3.2-9.4c0-0.1,0-0.2-0.1,0s-2.2,3.4-2.5,3.8
			c-0.2,0.3-0.2,0.5-0.2,0.5s0,2.3,0,2.5c0,0.2,0,2.6,0,3.1s0,0.4-0.1,0.4c-0.1,0-4.7-0.1-5.1-0.1c-0.4,0-0.3,0.1-0.3-0.5
			c0-0.6-0.1-12.4-0.1-13.4c0-1,0-12.9-0.1-13.3C2,5.9,2.1,6,2.4,6c0.3,0,4.9,0,4.9,0C7.6,6,7.5,6.1,7.6,6.3z"/>
		<path d="M30.6,6.2c0,0.2,1.5,3.7,2.8,6.9c1.2,3.2,3.3,7.4,3.3,7.4c0.2,0.4,0.2,0.1,0.2,0.1c0-0.6,0-10.9,0-11.8c0-0.9,0-7.5,0-7.9
			c0-0.4,0.4-0.2,0.4-0.2c0.4,0.2,4,1.6,4.5,1.9s0.4,0.4,0.4,0.4l0,0.1c-0.1,1.2-0.2,12.6-0.1,14.3c0,1.7,0.1,15.4,0.1,15.9
			c0,0.4,0,0.2-0.3,0.3c-0.4,0.1-5.2,0.1-5.6,0.1c-0.4,0-0.4-0.2-0.4-0.2c-0.8-1.8-2-4.7-3-7.4c-1.1-2.8-3.7-8.4-3.9-8.9
			c-0.2-0.5-0.2-0.1-0.3,0c0,0.1,0,16,0,16.1c0,0.2,0,0.2-0.2,0.2c-0.2,0.1-4.9,0-5.1,0c-0.2,0-0.1,0-0.2-0.3s0-11.2,0-11.2
			c-0.1-2.8,0-15.7,0-15.9c0-0.2,0.1-0.2,0.3-0.2c0.2,0,6.4,0,6.4,0C30.4,5.9,30.5,6.1,30.6,6.2z"/>
		<path d="M65,12.9c1.7,7.4,0.1,13,0.1,13c-1.5,6.4-6.3,7.8-6.3,7.8c-6,1.8-9.7-2.3-9.7-2.3c-4.4-3.9-3.7-11-3.5-12
			c0.1-1,0.7-2.9,0.7-2.9c0-0.1,0-0.2,0.2-0.2c0.2,0,0.4,0.2,0.4,0.2c1.7,0.9,3.8,1.1,4.3,1.2c0.4,0.1,0.3,0.2,0.3,0.2
			C51,20.3,51.1,23,51.1,23c0.2,5.9,4.5,5.8,4.5,5.8c3-0.3,4.5-2.5,4.7-9.1c0.1-6.5-2.2-7.9-2.2-7.9c-2.4-1.9-4.3-0.2-4.3-0.2
			c-1.7,1.6-0.2,3.3-0.2,3.3c-2.6,1.5-6.6-1.5-7.1-2c-0.5-0.4-0.2-0.7-0.2-0.7c2.5-7.6,10.1-6.9,10.1-6.9C63.4,5.6,65,12.9,65,12.9z
			"/>
		<path d="M69.7,10.6c2.1-3.6,4.2-4.3,6.4-5c2.2-0.7,5.7-0.2,7.2,0c1.6,0.1,2.2,0,2.5,0c0.3,0,0.2,0.2,0.2,0.2S85.7,7.3,85.5,8
			c-0.2,0.8-1,3.8-1.1,4.1c-0.1,0.4-0.3,0.2-0.3,0.2l-0.2-0.2c-3.7-2.5-6.4-1.2-6.4-1.2c-2.2,0.9-2.6,2.8-3.1,5.1
			c-0.5,2.1,0.1,6.2,0.1,6.2c0.2,3,2.3,5.6,4,7.9c1.6,2.3,5.2,4.3,5.4,4.4c0.2,0.1,0.1,0.2,0,0.3C84,34.8,83.9,35,83.9,35
			s-2.6,3.6-2.9,3.9c-0.4,0.3-0.7,0.1-0.7,0.1c-5.4-3-6.4-5.3-8.5-8.4c-2.1-3-3-7.4-3-7.4c-0.6-2.5-0.6-5.8-0.6-5.8
			C68.3,13,69.7,10.6,69.7,10.6z"/>
		<path d="M94.6,6.3c0,0.1,0,4.6,0,5.2c0,0.6,0,5.6,0,5.7c0,0.1,0.1,0.1,0.1,0.1c0.1-0.1,4.1-6.6,4.2-6.9c0.2-0.3,2.5-4.1,2.5-4.2
			c0-0.1,0.1-0.1,0.4-0.1s5.2,0,5.3,0c0.2,0,0.4,0,0.4,0.1c0.1,0.1,0,0.3,0,0.4c-0.1,0.1-0.9,1.5-1.2,1.9c-0.3,0.4-5,8.4-5.2,8.7
			c-0.2,0.3-0.1,0.3-0.1,0.4c0,0.1,3.2,8.6,3.3,9c0.1,0.3,3.6,10,3.6,10.3c0.1,0.4-0.1,0.4-0.2,0.4c-0.1,0-4.4,1.8-4.5,1.8
			c-0.1,0-0.3,0.1-0.4,0c-0.1-0.2-1.8-5.3-2.3-6.5c-0.4-1.2-3.2-9.3-3.2-9.4c0-0.1,0-0.2-0.1,0s-2.2,3.4-2.5,3.8
			c-0.2,0.3-0.2,0.5-0.2,0.5s0,2.3,0,2.5c0,0.2,0,2.6,0,3.1s0,0.4-0.1,0.4c-0.1,0-4.7-0.1-5.1-0.1c-0.4,0-0.3,0.1-0.3-0.5
			c0-0.6-0.1-12.4-0.1-13.4c0-1,0-12.9-0.1-13.3C89,5.9,89.1,6,89.4,6c0.3,0,4.9,0,4.9,0C94.6,6,94.6,6.1,94.6,6.3z"/>
		<path d="M127.8,12.9c1.7,7.4,0.1,13,0.1,13c-1.5,6.4-6.3,7.8-6.3,7.8c-6,1.8-9.7-2.3-9.7-2.3c-4.4-3.9-3.7-11-3.5-12
			c0.1-1,0.7-2.9,0.7-2.9c0-0.1,0-0.2,0.2-0.2c0.2,0,0.4,0.2,0.4,0.2c1.7,0.9,3.8,1.1,4.3,1.2c0.4,0.1,0.3,0.2,0.3,0.2
			c-0.4,2.2-0.3,4.9-0.3,4.9c0.2,5.9,4.5,5.8,4.5,5.8c3-0.3,4.5-2.5,4.7-9.1c0.1-6.5-2.2-7.9-2.2-7.9c-2.4-1.9-4.3-0.2-4.3-0.2
			c-1.7,1.6-0.2,3.3-0.2,3.3c-2.6,1.5-6.6-1.5-7.1-2c-0.5-0.4-0.2-0.7-0.2-0.7c2.5-7.6,10.1-6.9,10.1-6.9
			C126.2,5.6,127.8,12.9,127.8,12.9z"/>
		<path d="M137.1,6.3c0,0.4,0,18.4,0,19.5c0,1,0.9,3.2,3.7,3.4c2.7,0.2,3.9-1.9,4.3-3c0.4-0.9-0.1-24.8-0.1-25s0.2-0.3,0.5-0.2
			c0.3,0.1,4.5,1.8,4.9,2c0.4,0.2,0.3,0.5,0.3,0.5c0.1,1.1,0,16.1,0,16.1c0.1,7.7-0.3,8.1-0.3,8.1c-2.1,6.7-9.2,6.5-9.2,6.5
			c-7.1-0.2-8.7-4.9-9.3-6.6c-0.6-1.7-0.4-6.6-0.4-7.5c0-0.9,0-13,0-13.6c0-0.6,0.4-0.6,0.4-0.6c0.5,0,4.8,0,4.8,0
			C137.2,5.8,137.1,6.3,137.1,6.3z"/>
		<path d="M170.2,0.8c0.1,0,0.2-0.1,0.2,0.1s0,4.7,0,4.8c0,0.2-0.1,0.1-0.2,0.2c-0.1,0.1-4.9,2-5.1,2.1c-0.2,0.1-0.2,0.2-0.2,0.2
			c0,0.5,0,13.2,0,14.1s0,10.6,0,11c0,0.3-0.2,0.2-0.2,0.2c0,0-1.5,0-1.9,0c-0.4,0-2.7-0.1-3-0.1c-0.3,0-0.2-0.4-0.2-0.4
			c0-0.4,0-8.3,0-10.3c0-2,0-11.6,0-12.1c0-0.5-0.2-0.3-0.2-0.3c-0.2,0-4.9,2.1-5.4,2.2c-0.4,0.2-0.4-0.2-0.4-0.2
			c-0.1-0.4,0-4,0-4.6c0-0.6,0.2-0.4,0.2-0.4C154.5,7.1,170,0.8,170.2,0.8z"/>
	</g>
	<polygon points="159.6,33.4 164.9,33.4 164.9,63.5 160,58.6 	"/>
	<polygon points="7.7,32 2.2,32 2.2,62.1 7.2,57.2 	"/>
</g>
<g>
	<path d="M46.5,49c1.7-2.9,3.4-3.4,5.1-4c1.7-0.5,4.5-0.1,5.8,0c1.3,0.1,1.8,0,2,0c0.3,0,0.2,0.2,0.2,0.2s-0.3,1.1-0.4,1.7
		c-0.2,0.7-0.8,3-0.8,3.3c-0.1,0.3-0.3,0.2-0.3,0.2l-0.2-0.2c-2.9-2-5.1-1-5.1-1c-1.8,0.8-2.1,2.3-2.5,4c-0.4,1.7,0.1,5,0.1,5
		c0.2,2.4,1.9,4.5,3.2,6.3c1.3,1.9,4.2,3.5,4.3,3.5c0.2,0.1,0.1,0.1,0,0.2c-0.1,0.1-0.2,0.3-0.2,0.3s-2,2.9-2.3,3.1
		c-0.3,0.3-0.6,0.1-0.6,0.1c-4.3-2.4-5.1-4.2-6.8-6.7c-1.7-2.4-2.4-5.9-2.4-5.9c-0.5-2-0.4-4.6-0.4-4.6C45.4,50.9,46.5,49,46.5,49z"
		/>
	<path d="M76.7,69.9c-0.2,0.2-3.3,1.5-3.5,1.5c-0.2,0.1-0.3,0.1-0.3-0.1c-0.1-0.2-0.8-4-1.1-4.7c-0.2-0.8-1-4.5-1.1-4.5
		c-0.1,0,0.3-0.2-0.3,0.1c-0.5,0.3-2.1,0.8-2.1,0.8c-0.7,0.4-2.6,1.1-2.9,1.2C65,64.4,65,64.6,65,64.6s-0.3,1.4-0.4,2
		c-0.1,0.5-0.4,0.6-0.4,0.6h-3.7c-0.2,0-0.3,0-0.3-0.5c0-0.5,2.5-12,2.6-12.4c0.1-0.4,1.9-8.7,1.9-8.9c0.1-0.2,0.2-0.3,0.3-0.3
		c0.2,0,1.4,0,1.8,0c0.4,0.1,3.6,0,4,0c0.3,0,0.4,0.2,0.4,0.4c0.1,0.2,0.9,4.2,1.1,4.7c0.1,0.5,1.3,5.7,1.4,6.1
		c0.1,0.4,0.3,0.2,0.4,0.2c0.2,0,2-0.9,2.2-0.9c0.2-0.1,0.2-0.1,0.2,0.1c0,0.1,0,1.5,0,1.8c0,0.3,0,1.3,0,1.7c0,0.4-0.2,0.4-0.2,0.4
		s-1.5,0.7-1.6,0.8c-0.1,0.1-0.2,0.1-0.1,0.3c0,0.1,1,4.1,1.1,4.6c0.1,0.6,0.8,3.6,0.9,4C77,69.9,76.9,69.8,76.7,69.9z M69.8,58
		c-0.1-0.6-1.5-6.6-1.8-7c-0.1-0.2-0.1-0.3-0.2-0.2c0,0-1.2,5.9-1.4,6.5c-0.1,0.7-0.4,2.3-0.4,2.4s0,0.3,0.4,0.1
		c0.4-0.1,3-1.2,3.1-1.3C69.7,58.4,69.9,58.5,69.8,58z"/>
	<path d="M89.5,40.8c0.1,0.3,1.5,4.5,1.6,4.8c0.1,0.3-0.1,0.2-0.1,0.2s-0.7-0.1-2.6,0.1c-2,0.1-5.3,1.3-5.8,3.5
		c-0.5,2.2,2.3,3.9,2.3,3.9c5.5,2.5,6.4,4.6,6.4,4.6c2.2,3.1,1.3,6.7,0.4,8.3c-0.8,1.5-2.9,2.5-3.7,2.9c-0.8,0.4-4,1.3-5.1,1.5
		c-1.2,0.3-2.4,0.8-2.7,0.9c-0.4,0.1-0.4,0-0.4-0.1c0-0.1-1.4-4.7-1.4-4.9c-0.1-0.3,0.2-0.2,0.2-0.2s3.4,0.6,6.7-0.6
		c3.3-1.1,3-4.1,3-4.1c-0.5-2.9-2.4-2.9-5.5-4.8c-3.1-1.8-4.1-4.4-4.4-6c-0.2-1.6-0.2-3.6,1.4-5.6c1.6-2,4.2-2.5,6.4-3.2
		c2.2-0.7,3.2-1.3,3.2-1.3C89.4,40.5,89.5,40.8,89.5,40.8z"/>
	<path d="M109,45.5c0,0.2,0,2.4,0,2.7c0,0.3,0,1-0.1,1.1c-0.1,0.1-1.2,0-2,0.1c-0.8,0.1-7-0.1-7.3-0.1c-0.4,0-0.3,0.1-0.3,0.3
		c0,0.1,0.1,1.1,0.1,1.4c0,0.3,0,3.3,0,4c0,0.7,0.3,0.4,0.3,0.4s0.5-0.2,1-0.4c0.4-0.2,4.4-1.8,4.4-1.8c0.2-0.1,0.4-0.2,0.4-0.1
		c0,0.1,0,0.3,0,0.5s0,3,0,3.2c0,0.3-0.4,0.4-1,0.6c-0.6,0.2-4.9,2-5,2.1c-0.1,0-0.1,0.2-0.1,0.2c0,0.1,0.1,3,0.1,3.3
		c0,0.3,0,0.2,0.2,0.2c0.2,0,3.1,0,3.5,0c0.4,0,5.4,0,5.6,0c0.3,0,0.2,0.2,0.2,0.4c0,0.2,0.1,2.9,0,3.2c0,0.3-0.1,0.3-0.2,0.3
		c-0.1,0-5.6,0.1-6.1,0c-0.6,0-7.4,0-7.6,0c-0.2,0-0.2-0.2-0.2-0.2c0-1.1-0.1-5.5-0.1-5.9c0-0.5,0-7.6,0-8.2c0-0.6,0-7.2,0-7.4
		s0-0.3,0.2-0.3c0.2,0,6.5,0,7.4,0c0.9,0,6.2,0,6.2,0S109,45.3,109,45.5z"/>
	<path d="M122.5,40.8c0.1,0.3,1.5,4.5,1.6,4.8c0.1,0.3-0.1,0.2-0.1,0.2s-0.7-0.1-2.6,0.1c-2,0.1-5.3,1.3-5.8,3.5
		c-0.5,2.2,2.3,3.9,2.3,3.9c5.5,2.5,6.4,4.6,6.4,4.6c2.2,3.1,1.3,6.7,0.4,8.3c-0.8,1.5-2.9,2.5-3.7,2.9c-0.8,0.4-4,1.3-5.1,1.5
		c-1.2,0.3-2.4,0.8-2.7,0.9c-0.4,0.1-0.4,0-0.4-0.1c0-0.1-1.4-4.7-1.4-4.9c-0.1-0.3,0.2-0.2,0.2-0.2s3.4,0.6,6.7-0.6
		c3.3-1.1,3-4.1,3-4.1c-0.5-2.9-2.4-2.9-5.5-4.8c-3.1-1.8-4.1-4.4-4.4-6c-0.2-1.6-0.2-3.6,1.4-5.6c1.6-2,4.2-2.5,6.4-3.2
		c2.2-0.7,3.2-1.3,3.2-1.3C122.4,40.5,122.5,40.8,122.5,40.8z"/>
</g>
</svg>
